<svg width="400" height="400" viewBox="0 0 400 400" fill="none" xmlns="http://www.w3.org/2000/svg">
<g opacity="0.8">
<path opacity="0.8" d="M205.714 135.253C244.232 135.253 275.457 107.298 275.457 72.8133C275.457 38.3291 244.232 10.374 205.714 10.374C167.196 10.374 135.971 38.3291 135.971 72.8133C135.971 107.298 167.196 135.253 205.714 135.253Z" fill="url(#paint0_linear)"/>
</g>
<path d="M205.714 133.866C243.378 133.866 273.91 106.532 273.91 72.8132C273.91 39.0949 243.378 11.7607 205.714 11.7607C168.051 11.7607 137.519 39.0949 137.519 72.8132C137.519 106.532 168.051 133.866 205.714 133.866Z" fill="#45A323"/>
<path opacity="0.1" d="M148.543 79.5978C148.543 45.8797 179.072 18.5454 216.733 18.5454C228.426 18.471 240.003 21.2325 250.714 26.6516C238.729 17.2961 223.048 11.6113 205.886 11.6113C168.224 11.6113 137.691 38.9457 137.691 72.6638C137.691 95.304 151.457 115.066 171.91 125.61C157.591 114.417 148.543 97.9565 148.543 79.5978Z" fill="white"/>
<path opacity="0.2" d="M205.714 97.3516L281.314 248.679L356.914 400H205.714H54.5143L130.114 248.679L205.714 97.3516Z" fill="#45A323"/>
<g opacity="0.3">
<path opacity="0.3" d="M223.652 311.602L229.524 291.465C231.543 284.453 231.559 276.877 229.57 269.853C227.581 262.829 223.692 256.729 218.476 252.453L218.524 252.42C216.214 250.541 213.682 249.058 211.005 248.018V248.018L210.924 247.985L210.833 247.952C208.235 246.936 205.526 246.347 202.786 246.202C201.816 246.144 200.845 246.144 199.876 246.202C198.194 246.303 196.523 246.57 194.881 247C194.405 247.121 193.928 247.258 193.495 247.407C193.062 247.555 192.576 247.715 192.124 247.886C191.219 248.232 190.328 248.623 189.457 249.069C189.019 249.289 188.586 249.52 188.162 249.768C186.88 250.499 185.647 251.338 184.471 252.277C184.076 252.591 183.69 252.915 183.309 253.246C178.602 257.382 175.079 263.057 173.195 269.535L163.967 301.261C162.514 306.237 162.077 311.533 162.69 316.736C162.786 317.534 162.905 318.327 163.043 319.114C163.181 319.901 163.352 320.677 163.519 321.447C163.647 321.959 163.781 322.471 163.928 322.977C164.147 323.731 164.405 324.485 164.647 325.222C164.824 325.712 165.009 326.202 165.205 326.686C165.59 327.649 166.019 328.59 166.481 329.509C166.943 330.428 167.433 331.325 167.986 332.195C168.386 332.844 168.809 333.482 169.247 334.099C169.838 334.924 170.457 335.75 171.114 336.482C173.958 339.796 177.362 342.398 181.114 344.126V344.126L181.276 344.203C181.478 343.79 181.7 343.391 181.943 343.009C183.371 340.747 185.857 339.156 188.224 339.751C188.395 339.795 188.567 339.855 188.738 339.916C189.938 340.406 191.119 341.281 192.276 341.71C192.697 341.928 193.154 342.038 193.615 342.031C194.077 342.025 194.531 341.902 194.948 341.671C197.262 340.246 196.405 335.75 198.39 333.78C198.483 333.689 198.58 333.604 198.681 333.527C198.653 333.487 198.627 333.444 198.605 333.4C200.138 332.299 202.262 333.031 204.028 333.741C205.933 334.517 208.419 335.04 209.743 333.24C210.638 332.008 210.571 330.131 211.424 328.838C212.414 327.352 214.281 327.187 215.895 327.451L215.976 327.479C219.071 328.953 222.452 326.504 222.214 322.647C221.933 317.501 223.333 312.653 223.652 311.602Z" fill="url(#paint1_linear)"/>
</g>
<path d="M182.481 341.314C183.871 339.113 186.257 337.572 188.543 338.172C190.828 338.771 192.995 341.286 195.028 340.026C197.809 338.309 195.838 331.997 200.352 331.529C201.293 331.457 202.235 331.646 203.1 332.079C205.005 332.977 207.986 333.989 209.452 331.969C210.314 330.781 210.252 328.97 211.076 327.737C212.029 326.307 213.843 326.125 215.39 326.4L215.467 326.428C218.452 327.853 221.719 325.487 221.486 321.767C221.186 316.814 222.548 312.147 222.843 311.134L228.5 291.703C230.906 283.372 230.361 274.28 226.984 266.413C223.606 258.546 217.671 252.544 210.476 249.719V249.719C203.269 246.941 195.403 247.574 188.598 251.478C181.792 255.382 176.601 262.24 174.157 270.554L165.238 301.113C162.92 309.15 163.345 317.907 166.427 325.594C169.509 333.281 175.015 339.317 181.819 342.47C182.02 342.07 182.241 341.684 182.481 341.314V341.314Z" fill="white"/>
<path opacity="0.2" d="M193.024 271.082C194.736 271.082 196.124 269.478 196.124 267.5C196.124 265.521 194.736 263.917 193.024 263.917C191.312 263.917 189.924 265.521 189.924 267.5C189.924 269.478 191.312 271.082 193.024 271.082Z" fill="black"/>
<path opacity="0.2" d="M210.653 277.933C212.365 277.933 213.753 276.329 213.753 274.35C213.753 272.372 212.365 270.768 210.653 270.768C208.941 270.768 207.553 272.372 207.553 274.35C207.553 276.329 208.941 277.933 210.653 277.933Z" fill="black"/>
<path d="M200.834 285.685C201.652 282.874 201.001 280.083 199.378 279.452C197.755 278.821 195.776 280.588 194.958 283.4C194.139 286.211 194.791 289.002 196.413 289.633C198.036 290.264 200.015 288.496 200.834 285.685Z" fill="#E0E0E0"/>
<path d="M263.11 273.663C265.676 273.663 267.757 271.258 267.757 268.292C267.757 265.326 265.676 262.921 263.11 262.921C260.543 262.921 258.462 265.326 258.462 268.292C258.462 271.258 260.543 273.663 263.11 273.663Z" fill="white"/>
<path d="M277.833 262.53C279.117 262.53 280.157 261.328 280.157 259.845C280.157 258.362 279.117 257.159 277.833 257.159C276.55 257.159 275.509 258.362 275.509 259.845C275.509 261.328 276.55 262.53 277.833 262.53Z" fill="white"/>
<g opacity="0.5">
<g opacity="0.3">
<path opacity="0.3" d="M229.843 95.3262L235.714 75.19C237.733 68.1776 237.749 60.6011 235.76 53.5772C233.771 46.5534 229.882 40.4539 224.666 36.1778L224.714 36.1448C222.405 34.2658 219.872 32.7829 217.195 31.7422L217.114 31.7092L217.024 31.6762C214.425 30.6605 211.716 30.0714 208.976 29.9262C208.007 29.8684 207.036 29.8684 206.066 29.9262C204.385 30.0279 202.714 30.2948 201.071 30.7241C200.595 30.8452 200.119 30.9828 199.686 31.1314C199.252 31.28 198.767 31.4395 198.314 31.6101C197.409 31.9568 196.519 32.3476 195.647 32.7933C195.209 33.0135 194.776 33.2446 194.352 33.4922C193.071 34.2235 191.837 35.0622 190.662 36.0017C190.266 36.3154 189.881 36.6401 189.5 36.9703C184.793 41.107 181.269 46.7819 179.386 53.2597L170.157 84.9857C168.705 89.9612 168.268 95.2576 168.881 100.461C168.976 101.259 169.095 102.051 169.233 102.838C169.371 103.625 169.543 104.401 169.709 105.171C169.838 105.683 169.971 106.195 170.119 106.701C170.338 107.455 170.595 108.209 170.838 108.947C171.014 109.436 171.2 109.926 171.395 110.41C171.781 111.373 172.209 112.315 172.671 113.234C173.133 114.153 173.624 115.05 174.176 115.919C174.576 116.569 175 117.207 175.438 117.823C176.028 118.649 176.647 119.447 177.305 120.206C180.149 123.52 183.553 126.122 187.305 127.85V127.85L187.466 127.927C187.668 127.514 187.891 127.115 188.133 126.733C189.562 124.471 192.047 122.881 194.414 123.475C194.586 123.519 194.757 123.58 194.928 123.64C196.128 124.13 197.309 125.005 198.467 125.434C198.887 125.653 199.344 125.763 199.806 125.756C200.267 125.749 200.722 125.626 201.138 125.396C203.452 123.97 202.595 119.474 204.581 117.504C204.673 117.413 204.77 117.329 204.871 117.251C204.843 117.211 204.818 117.169 204.795 117.124C206.328 116.024 208.452 116.756 210.219 117.466C212.124 118.241 214.609 118.764 215.933 116.965C216.828 115.732 216.762 113.855 217.614 112.562C218.605 111.076 220.471 110.911 222.086 111.175H222.166C225.262 112.65 228.643 110.201 228.405 106.344C228.124 101.226 229.524 96.3773 229.843 95.3262Z" fill="url(#paint2_linear)"/>
</g>
<path opacity="0.5" d="M188.671 125.037C190.062 122.836 192.447 121.295 194.733 121.895C197.019 122.495 199.186 125.01 201.219 123.75C204 122.033 202.028 115.721 206.543 115.253C207.483 115.181 208.425 115.37 209.29 115.803C211.195 116.7 214.176 117.713 215.643 115.693C216.505 114.504 216.443 112.694 217.267 111.461C218.219 110.03 220.033 109.849 221.581 110.124L221.657 110.151C224.643 111.577 227.909 109.21 227.676 105.49C227.376 100.537 228.738 95.8706 229.033 94.858L234.69 75.4262C237.097 67.096 236.551 58.0036 233.174 50.1365C229.797 42.2694 223.862 36.2674 216.667 33.4423V33.4423C209.459 30.6651 201.593 31.2976 194.788 35.2016C187.983 39.1055 182.791 45.9636 180.347 54.2774L171.428 84.8366C169.11 92.8738 169.536 101.631 172.618 109.317C175.699 117.004 181.205 123.041 188.009 126.193C188.21 125.793 188.431 125.407 188.671 125.037Z" fill="white"/>
<path opacity="0.2" d="M199.214 54.8068C200.926 54.8068 202.314 53.2028 202.314 51.2242C202.314 49.2456 200.926 47.6416 199.214 47.6416C197.502 47.6416 196.114 49.2456 196.114 51.2242C196.114 53.2028 197.502 54.8068 199.214 54.8068Z" fill="black"/>
<path opacity="0.2" d="M216.843 61.6583C218.555 61.6583 219.943 60.0543 219.943 58.0757C219.943 56.0971 218.555 54.4932 216.843 54.4932C215.131 54.4932 213.743 56.0971 213.743 58.0757C213.743 60.0543 215.131 61.6583 216.843 61.6583Z" fill="black"/>
</g>
<path opacity="0.1" d="M271.2 54.7188C272.085 58.673 272.532 62.7413 272.529 66.8258C272.529 100.544 242 127.878 204.338 127.878C173.514 127.856 147.472 109.553 139.048 84.436C145.305 112.376 172.857 133.414 205.91 133.414C243.572 133.414 274.105 106.08 274.105 72.362C274.095 66.3232 273.11 60.3397 271.2 54.7188V54.7188Z" fill="black"/>
<g opacity="0.8">
<path opacity="0.8" d="M205.714 142.032C283.607 142.032 346.752 122.959 346.752 99.4313C346.752 75.9038 283.607 56.8311 205.714 56.8311C127.821 56.8311 64.6761 75.9038 64.6761 99.4313C64.6761 122.959 127.821 142.032 205.714 142.032Z" fill="url(#paint3_linear)"/>
</g>
<path d="M205.714 58.2402C130.39 58.2402 69.3237 76.6815 69.3237 99.4373H342.105C342.105 76.6815 281.038 58.2402 205.714 58.2402Z" fill="white"/>
<path d="M205.714 140.628C281.038 140.628 342.105 122.187 342.105 99.4365H69.3237C69.3237 122.187 130.39 140.628 205.714 140.628Z" fill="white"/>
<path opacity="0.05" d="M205.714 140.628C281.038 140.628 342.105 122.187 342.105 99.4365H69.3237C69.3237 122.187 130.39 140.628 205.714 140.628Z" fill="black"/>
<path opacity="0.05" d="M262.61 88.6846H148.819C144.29 88.6846 140.619 92.9273 140.619 98.1611V100.704C140.619 105.937 144.29 110.18 148.819 110.18H262.61C267.138 110.18 270.81 105.937 270.81 100.704V98.1611C270.81 92.9273 267.138 88.6846 262.61 88.6846Z" fill="black"/>
<path opacity="0.5" d="M63.757 31.8142C63.3636 31.6158 63.0469 31.2574 62.8669 30.807C62.687 30.3566 62.6563 29.8455 62.7808 29.3708C62.8008 29.2975 62.8136 29.2218 62.8189 29.1451V29.1451C62.8311 28.9274 62.782 28.7109 62.6791 28.5279C62.5761 28.345 62.4248 28.2053 62.2476 28.1299C62.0704 28.0544 61.8768 28.0471 61.6958 28.1091C61.5147 28.171 61.3558 28.2989 61.2427 28.4737C61.2046 28.5354 61.1727 28.6019 61.1475 28.6719C60.9766 29.1273 60.6666 29.4941 60.2766 29.7022C59.8867 29.9103 59.444 29.9451 59.0332 29.8C58.9696 29.7775 58.9042 29.7628 58.838 29.756C58.6495 29.7419 58.4622 29.7986 58.3039 29.9176C58.1456 30.0366 58.0248 30.2115 57.9595 30.4163C57.8942 30.6211 57.8878 30.8447 57.9415 31.054C57.9951 31.2633 58.1058 31.4469 58.257 31.5776V31.5776C58.3096 31.6244 58.3672 31.6633 58.4285 31.6931C58.8219 31.8915 59.1386 32.2499 59.3186 32.7003C59.4985 33.1507 59.5291 33.6618 59.4046 34.1365C59.3851 34.2081 59.3723 34.2819 59.3666 34.3567V34.3567C59.3532 34.5749 59.4015 34.7923 59.504 34.9763C59.6065 35.1602 59.7579 35.3008 59.9354 35.3771C60.1129 35.4533 60.3069 35.461 60.4885 35.3991C60.6701 35.3372 60.8295 35.2089 60.9427 35.0336C60.9819 34.9707 61.0139 34.9022 61.038 34.8299C61.213 34.3795 61.5248 34.0188 61.9144 33.816C62.304 33.6132 62.7443 33.5824 63.1523 33.7293C63.2158 33.7518 63.2813 33.7666 63.3475 33.7733C63.5359 33.7874 63.7233 33.7307 63.8816 33.6117C64.0399 33.4927 64.1607 33.3178 64.226 33.113C64.2913 32.9083 64.2976 32.6846 64.244 32.4753C64.1904 32.2661 64.0797 32.0824 63.9284 31.9518V31.9518C63.877 31.8972 63.8193 31.8509 63.757 31.8142V31.8142Z" fill="#4D8AF0"/>
<path opacity="0.5" d="M306.138 200.212C305.749 200.008 305.437 199.648 305.262 199.198C305.087 198.748 305.059 198.24 305.185 197.768C305.205 197.695 305.218 197.619 305.224 197.543V197.543C305.236 197.325 305.187 197.108 305.084 196.925C304.981 196.742 304.829 196.603 304.652 196.527C304.475 196.452 304.281 196.445 304.1 196.507C303.919 196.568 303.76 196.696 303.647 196.871C303.609 196.933 303.577 196.999 303.552 197.069C303.381 197.525 303.071 197.892 302.681 198.1C302.291 198.308 301.849 198.343 301.438 198.197C301.374 198.175 301.309 198.16 301.243 198.153V198.153C301.054 198.139 300.867 198.196 300.709 198.315C300.55 198.434 300.429 198.609 300.364 198.814C300.299 199.019 300.292 199.242 300.346 199.451C300.4 199.661 300.51 199.844 300.662 199.975V199.975C300.714 200.022 300.772 200.061 300.833 200.091C301.222 200.294 301.534 200.654 301.709 201.104C301.884 201.554 301.912 202.063 301.785 202.534C301.766 202.606 301.753 202.679 301.747 202.754V202.754C301.734 202.972 301.782 203.19 301.885 203.374C301.987 203.558 302.139 203.698 302.316 203.774C302.494 203.851 302.688 203.858 302.869 203.796C303.051 203.735 303.21 203.606 303.324 203.431V203.431C303.363 203.368 303.395 203.3 303.419 203.227C303.594 202.777 303.906 202.416 304.295 202.213C304.685 202.011 305.125 201.98 305.533 202.127C305.597 202.149 305.662 202.164 305.728 202.171V202.171C305.917 202.185 306.104 202.128 306.262 202.009C306.421 201.89 306.542 201.715 306.607 201.51C306.672 201.306 306.678 201.082 306.625 200.873C306.571 200.664 306.461 200.48 306.309 200.349C306.258 200.295 306.2 200.248 306.138 200.212V200.212Z" fill="#4D8AF0"/>
<path opacity="0.5" d="M38.5191 278.357C38.1257 278.159 37.809 277.8 37.629 277.35C37.4491 276.9 37.4184 276.389 37.5429 275.914C37.5629 275.84 37.5757 275.765 37.581 275.688V275.688C37.5932 275.47 37.5441 275.254 37.4412 275.071C37.3382 274.888 37.1869 274.748 37.0097 274.673C36.8325 274.597 36.6389 274.59 36.4579 274.652C36.2768 274.714 36.1179 274.842 36.0048 275.017V275.017C35.9667 275.078 35.9348 275.145 35.9096 275.215C35.7387 275.67 35.4287 276.037 35.0387 276.245C34.6487 276.453 34.2061 276.488 33.7953 276.343C33.7317 276.32 33.6663 276.306 33.6001 276.299V276.299C33.4116 276.285 33.2243 276.342 33.066 276.461C32.9077 276.58 32.7869 276.754 32.7215 276.959C32.6562 277.164 32.6499 277.388 32.7035 277.597C32.7572 277.806 32.8678 277.99 33.0191 278.121V278.121C33.0717 278.167 33.1293 278.206 33.1905 278.236C33.584 278.435 33.9007 278.793 34.0806 279.243C34.2606 279.694 34.2912 280.205 34.1667 280.68C34.1472 280.751 34.1344 280.825 34.1286 280.9V280.9C34.1153 281.118 34.1635 281.335 34.2661 281.519C34.3686 281.703 34.52 281.844 34.6975 281.92C34.8749 281.996 35.069 282.004 35.2506 281.942C35.4322 281.88 35.5916 281.752 35.7048 281.577C35.744 281.514 35.776 281.445 35.8001 281.373C35.9751 280.922 36.2869 280.562 36.6765 280.359C37.0661 280.156 37.5064 280.125 37.9144 280.272C37.9779 280.295 38.0434 280.31 38.1096 280.316C38.298 280.33 38.4854 280.274 38.6437 280.155C38.802 280.036 38.9228 279.861 38.9881 279.656C39.0534 279.451 39.0597 279.228 39.0061 279.018C38.9525 278.809 38.8418 278.625 38.6905 278.495V278.495C38.6391 278.44 38.5814 278.394 38.5191 278.357V278.357Z" fill="#4D8AF0"/>
<path opacity="0.5" d="M12.3284 96.2009C11.9394 95.9977 11.6279 95.6372 11.4525 95.1873C11.2772 94.7374 11.25 94.2289 11.3761 93.7575C11.396 93.6842 11.4088 93.6085 11.4141 93.5319V93.5319C11.4263 93.3141 11.3772 93.0976 11.2743 92.9146C11.1713 92.7317 11.02 92.5921 10.8428 92.5166C10.6656 92.4411 10.4721 92.4338 10.291 92.4958C10.1099 92.5577 9.95102 92.6857 9.83796 92.8605V92.8605C9.79983 92.9221 9.76788 92.9886 9.74272 93.0586C9.57187 93.5141 9.26185 93.8809 8.87186 94.089C8.48187 94.297 8.03923 94.3319 7.62843 94.1867C7.56486 94.1642 7.49943 94.1495 7.4332 94.1427V94.1427C7.24474 94.1287 7.05741 94.1854 6.8991 94.3044C6.74079 94.4233 6.61998 94.5982 6.55467 94.803C6.48936 95.0078 6.48305 95.2315 6.53668 95.4407C6.5903 95.65 6.70098 95.8336 6.85224 95.9643C6.90484 96.0112 6.96246 96.05 7.02367 96.0798C7.4171 96.2783 7.73383 96.6367 7.91377 97.0871C8.09371 97.5375 8.12434 98.0485 7.99986 98.5233C7.98033 98.5948 7.96756 98.6686 7.96177 98.7434V98.7434C7.94845 98.9617 7.99667 99.1791 8.09921 99.363C8.20175 99.547 8.3531 99.6876 8.53059 99.7638C8.70807 99.84 8.90214 99.8477 9.08375 99.7858C9.26535 99.7239 9.4247 99.5957 9.53796 99.4203V99.4203C9.57709 99.3574 9.60909 99.289 9.63319 99.2167C9.80826 98.7662 10.1201 98.4055 10.5096 98.2027C10.8992 97.9999 11.3396 97.9691 11.7475 98.116C11.8111 98.1385 11.8765 98.1533 11.9427 98.1601C12.1312 98.1741 12.3185 98.1174 12.4768 97.9984C12.6351 97.8794 12.7559 97.7045 12.8212 97.4998C12.8865 97.295 12.8929 97.0713 12.8392 96.8621C12.7856 96.6528 12.6749 96.4692 12.5237 96.3385V96.3385C12.4649 96.2817 12.3991 96.2353 12.3284 96.2009V96.2009Z" fill="#4D8AF0"/>
<path opacity="0.5" d="M301.376 3.74803C300.987 3.54476 300.676 3.18432 300.5 2.73441C300.325 2.28449 300.298 1.77606 300.424 1.30461C300.444 1.23129 300.457 1.15561 300.462 1.07898V1.07898C300.474 0.861193 300.425 0.644695 300.322 0.461743C300.219 0.278791 300.068 0.139178 299.891 0.0637025C299.713 -0.0117729 299.52 -0.0190696 299.339 0.0428984C299.158 0.104866 298.999 0.232782 298.886 0.407589V0.407589C298.848 0.469251 298.816 0.535715 298.791 0.605705C298.615 1.05614 298.304 1.41685 297.914 1.61966C297.525 1.82246 297.084 1.8533 296.676 1.70634C296.613 1.68383 296.547 1.66908 296.481 1.66232V1.66232C296.276 1.61256 296.062 1.64954 295.878 1.76654C295.694 1.88354 295.553 2.07279 295.48 2.29993C295.407 2.52707 295.407 2.77701 295.479 3.00436C295.552 3.23171 295.693 3.42138 295.876 3.53891V3.53891C295.929 3.5858 295.986 3.62465 296.048 3.65448C296.437 3.85774 296.748 4.21818 296.924 4.6681C297.099 5.11802 297.126 5.62645 297 6.0979C296.981 6.16947 296.968 6.24328 296.962 6.31803V6.31803C296.942 6.54464 296.988 6.77247 297.094 6.9647C297.2 7.15694 297.359 7.30235 297.545 7.37743C297.731 7.45251 297.933 7.45288 298.12 7.37848C298.306 7.30408 298.465 7.15925 298.571 6.96741V6.96741C298.611 6.90451 298.643 6.83608 298.667 6.76379C298.842 6.31335 299.154 5.95264 299.543 5.74983C299.933 5.54703 300.373 5.51619 300.781 5.66315C300.845 5.68566 300.91 5.70041 300.976 5.70717V5.70717C301.165 5.72122 301.352 5.66452 301.51 5.54554C301.669 5.42655 301.789 5.25165 301.855 5.04687C301.92 4.8421 301.926 4.61842 301.873 4.40916C301.819 4.19991 301.708 4.01627 301.557 3.88561V3.88561C301.503 3.83014 301.442 3.78383 301.376 3.74803V3.74803Z" fill="#4D8AF0"/>
<g opacity="0.5">
<path opacity="0.5" d="M53.8097 141.899H52.3811V151.255H53.8097V141.899Z" fill="#47E6B1"/>
<path opacity="0.5" d="M57.1429 147.403V145.752H49.0477V147.403H57.1429Z" fill="#47E6B1"/>
</g>
<g opacity="0.5">
<path opacity="0.5" d="M396.667 97.874H395.238V107.229H396.667V97.874Z" fill="#47E6B1"/>
<path opacity="0.5" d="M400 103.378V101.727H391.905V103.378H400Z" fill="#47E6B1"/>
</g>
<g opacity="0.5">
<path opacity="0.5" d="M349.048 251.413H347.619V260.769H349.048V251.413Z" fill="#47E6B1"/>
<path opacity="0.5" d="M352.381 256.916V255.266H344.286V256.916H352.381Z" fill="#47E6B1"/>
</g>
<path opacity="0.5" d="M344.286 48.345C345.864 48.345 347.143 46.8667 347.143 45.0431C347.143 43.2195 345.864 41.7412 344.286 41.7412C342.708 41.7412 341.429 43.2195 341.429 45.0431C341.429 46.8667 342.708 48.345 344.286 48.345Z" fill="#F55F44"/>
<path opacity="0.5" d="M2.85714 10.3734C4.4351 10.3734 5.71429 8.89505 5.71429 7.07145C5.71429 5.24785 4.4351 3.76953 2.85714 3.76953C1.27919 3.76953 0 5.24785 0 7.07145C0 8.89505 1.27919 10.3734 2.85714 10.3734Z" fill="#F55F44"/>
<path opacity="0.5" d="M88.5715 200.234C90.1494 200.234 91.4286 198.755 91.4286 196.932C91.4286 195.108 90.1494 193.63 88.5715 193.63C86.9935 193.63 85.7144 195.108 85.7144 196.932C85.7144 198.755 86.9935 200.234 88.5715 200.234Z" fill="#F55F44"/>
<path opacity="0.05" d="M111.429 88.8383C120.37 88.8383 127.619 87.1136 127.619 84.986C127.619 82.8585 120.37 81.1338 111.429 81.1338C102.487 81.1338 95.2382 82.8585 95.2382 84.986C95.2382 87.1136 102.487 88.8383 111.429 88.8383Z" fill="black"/>
<path opacity="0.05" d="M111.429 118.004C120.37 118.004 127.619 116.279 127.619 114.152C127.619 112.024 120.37 110.3 111.429 110.3C102.487 110.3 95.2382 112.024 95.2382 114.152C95.2382 116.279 102.487 118.004 111.429 118.004Z" fill="black"/>
<path opacity="0.05" d="M295.714 88.8383C304.656 88.8383 311.905 87.1136 311.905 84.986C311.905 82.8585 304.656 81.1338 295.714 81.1338C286.773 81.1338 279.524 82.8585 279.524 84.986C279.524 87.1136 286.773 88.8383 295.714 88.8383Z" fill="black"/>
<path opacity="0.05" d="M295.714 118.004C304.656 118.004 311.905 116.279 311.905 114.152C311.905 112.024 304.656 110.3 295.714 110.3C286.773 110.3 279.524 112.024 279.524 114.152C279.524 116.279 286.773 118.004 295.714 118.004Z" fill="black"/>
<path opacity="0.05" d="M205.714 72.3284C214.656 72.3284 221.905 70.6038 221.905 68.4762C221.905 66.3487 214.656 64.624 205.714 64.624C196.773 64.624 189.524 66.3487 189.524 68.4762C189.524 70.6038 196.773 72.3284 205.714 72.3284Z" fill="black"/>
<path opacity="0.05" d="M217.619 32.1556C226.561 32.1556 233.81 30.4309 233.81 28.3034C233.81 26.1759 226.561 24.4512 217.619 24.4512C208.677 24.4512 201.429 26.1759 201.429 28.3034C201.429 30.4309 208.677 32.1556 217.619 32.1556Z" fill="black"/>
<path opacity="0.05" d="M186.667 48.6644C195.608 48.6644 202.857 46.9397 202.857 44.8122C202.857 42.6847 195.608 40.96 186.667 40.96C177.725 40.96 170.476 42.6847 170.476 44.8122C170.476 46.9397 177.725 48.6644 186.667 48.6644Z" fill="black"/>
<path opacity="0.05" d="M246.19 55.8197C255.132 55.8197 262.381 54.095 262.381 51.9675C262.381 49.8399 255.132 48.1152 246.19 48.1152C237.249 48.1152 230 49.8399 230 51.9675C230 54.095 237.249 55.8197 246.19 55.8197Z" fill="black"/>
<path opacity="0.05" d="M205.714 129.562C214.656 129.562 221.905 127.837 221.905 125.71C221.905 123.582 214.656 121.857 205.714 121.857C196.773 121.857 189.524 123.582 189.524 125.71C189.524 127.837 196.773 129.562 205.714 129.562Z" fill="black"/>
<defs>
<linearGradient id="paint0_linear" x1="205.714" y1="135.258" x2="205.714" y2="10.374" gradientUnits="userSpaceOnUse">
<stop stop-color="#808080" stop-opacity="0.25"/>
<stop offset="0.54" stop-color="#808080" stop-opacity="0.12"/>
<stop offset="1" stop-color="#808080" stop-opacity="0.1"/>
</linearGradient>
<linearGradient id="paint1_linear" x1="-22427.9" y1="189451" x2="-15926.8" y2="172751" gradientUnits="userSpaceOnUse">
<stop stop-color="#808080" stop-opacity="0.25"/>
<stop offset="0.54" stop-color="#808080" stop-opacity="0.12"/>
<stop offset="1" stop-color="#808080" stop-opacity="0.1"/>
</linearGradient>
<linearGradient id="paint2_linear" x1="-19504.7" y1="151300" x2="-13003.6" y2="134599" gradientUnits="userSpaceOnUse">
<stop stop-color="#808080" stop-opacity="0.25"/>
<stop offset="0.54" stop-color="#808080" stop-opacity="0.12"/>
<stop offset="1" stop-color="#808080" stop-opacity="0.1"/>
</linearGradient>
<linearGradient id="paint3_linear" x1="121922" y1="22046.2" x2="121922" y2="8855.49" gradientUnits="userSpaceOnUse">
<stop stop-color="#808080" stop-opacity="0.25"/>
<stop offset="0.54" stop-color="#808080" stop-opacity="0.12"/>
<stop offset="1" stop-color="#808080" stop-opacity="0.1"/>
</linearGradient>
</defs>
</svg>
