<svg width="20" height="20" viewBox="0 0 20 20" fill="none" xmlns="http://www.w3.org/2000/svg">
<path d="M19.5845 15.3038L12.5194 1.52193C11.3843 -0.505962 8.61723 -0.508656 7.48058 1.52193L0.415894 15.3038C-0.744497 17.376 0.660386 20 2.93472 20H17.065C19.3375 20 20.7448 17.3781 19.5845 15.3038ZM10 17.5129C9.35398 17.5129 8.82812 16.9548 8.82812 16.2693C8.82812 15.5838 9.35398 15.0257 10 15.0257C10.646 15.0257 11.1719 15.5838 11.1719 16.2693C11.1719 16.9548 10.646 17.5129 10 17.5129ZM11.1719 12.5386C11.1719 13.2241 10.646 13.7822 10 13.7822C9.35398 13.7822 8.82812 13.2241 8.82812 12.5386V6.32074C8.82812 5.6352 9.35398 5.07717 10 5.07717C10.646 5.07717 11.1719 5.6352 11.1719 6.32074V12.5386Z" fill="#727272"/>
</svg>
