<svg width="50" height="50" viewBox="0 0 50 50" fill="none" xmlns="http://www.w3.org/2000/svg">
<g clip-path="url(#clip0)">
<path d="M30.6182 9.66201L29.3677 8.41156L28.1339 9.64531L29.3844 10.8958L30.6182 9.66201Z" fill="black"/>
<path d="M20.6107 19.6695L19.3599 18.4183L18.1259 19.6518L19.3768 20.903L20.6107 19.6695Z" fill="black"/>
<path d="M23.1118 17.1678L21.8613 15.9174L20.6276 17.1511L21.878 18.4016L23.1118 17.1678Z" fill="black"/>
<path d="M25.6142 14.6651L24.3638 13.4146L23.13 14.6484L24.3805 15.8988L25.6142 14.6651Z" fill="black"/>
<path d="M28.1171 12.1641L26.8662 10.9129L25.6323 12.1465L26.8831 13.3977L28.1171 12.1641Z" fill="black"/>
<path d="M33.1191 7.16324L31.8687 5.91278L30.6349 7.14654L31.8854 8.397L33.1191 7.16324Z" fill="black"/>
<path d="M35.6166 4.6621L34.3652 3.41144L33.1318 4.64554L34.3832 5.89621L35.6166 4.6621Z" fill="black"/>
<path d="M38.1258 2.15451L36.875 0.90332L35.6411 2.1369L36.8919 3.38809L38.1258 2.15451Z" fill="black"/>
<path d="M44.5874 1.79859L42.9331 1.24664L42.3071 3.12273L43.9614 3.67468L44.5874 1.79859Z" fill="black"/>
<path d="M44.663 5.48385L46.5391 4.85809L45.987 3.20297L44.1109 3.82873L44.663 5.48385Z" fill="black"/>
<path d="M41.4628 1.87616L40.8374 -0.00012207L39.1829 0.551305L39.8083 2.42759L41.4628 1.87616Z" fill="black"/>
<path d="M45.913 6.32091L45.3613 7.9762L47.2376 8.60156L47.7893 6.94627L45.913 6.32091Z" fill="black"/>
<path d="M26.8878 28.4118L28.1392 29.6625L29.3726 28.4284L28.1212 27.1777L26.8878 28.4118Z" fill="black"/>
<path d="M29.3849 25.9009L30.6357 27.1521L31.8697 25.9185L30.6188 24.6673L29.3849 25.9009Z" fill="black"/>
<path d="M31.8867 23.4052L33.1372 24.6556L34.371 23.4219L33.1205 22.1714L31.8867 23.4052Z" fill="black"/>
<path d="M34.3877 20.9038L35.6382 22.1542L36.8719 20.9205L35.6215 19.67L34.3877 20.9038Z" fill="black"/>
<path d="M36.8902 18.4016L38.1406 19.6521L39.3744 18.4183L38.1239 17.1679L36.8902 18.4016Z" fill="black"/>
<path d="M39.3888 15.9044L40.6396 17.1556L41.8735 15.9221L40.6227 14.6709L39.3888 15.9044Z" fill="black"/>
<path d="M41.896 13.3938L43.1465 14.6443L44.3803 13.4105L43.1298 12.1601L41.896 13.3938Z" fill="black"/>
<path d="M44.3935 10.8984L45.644 12.1489L46.8778 10.9151L45.6273 9.66465L44.3935 10.8984Z" fill="black"/>
<path d="M40.6774 7.10911C40.5057 6.94901 40.2801 6.85937 40.0452 6.85779C39.7929 6.86184 39.5522 6.96452 39.3748 7.14399L21.229 25.2893L22.2957 26.3562L22.4973 26.5577L40.6426 8.41215C41.0109 8.06151 41.0265 7.47892 40.6774 7.10911Z" fill="black"/>
<path d="M43.2296 10.8279C44.9301 9.12314 44.9301 6.36366 43.2296 4.65888L43.1256 4.55491C41.4208 2.85537 38.6622 2.85596 36.9582 4.5562L18.7266 22.788L19.9942 24.0557L38.1399 5.91034C38.6381 5.40859 39.3132 5.12229 40.0202 5.1129C40.7271 5.10173 41.4087 5.37667 41.9099 5.87535C42.94 6.92678 42.9244 8.61358 41.875 9.64574L23.7297 27.7913L24.9976 29.0594L43.2296 10.8279Z" fill="black"/>
<path d="M22.4956 29.0253L21.2019 30.3186C20.1821 31.3417 20.1821 32.997 21.2019 34.02L22.4958 35.3135L25.006 32.8034C25.3536 32.4522 25.3536 31.8867 25.006 31.5356L22.4956 29.0253Z" fill="black"/>
<path d="M2.47442 41.5421C2.17735 41.8365 2.12487 42.2978 2.34832 42.6513L6.67708 49.579C6.82206 49.8105 7.06478 49.9634 7.33626 49.9942C7.60774 50.0251 7.87853 49.9305 8.07174 49.7374L10.6302 47.1795L3.73359 40.2829L2.47442 41.5421Z" fill="black"/>
<path d="M19.9685 29.085L21.2623 27.7915L20.3156 26.8447L16.8758 23.4048L16.8752 23.4039L15.6251 22.1538C15.2692 21.818 14.7133 21.818 14.3574 22.1538L13.723 22.7879L16.2334 25.2984C16.7271 25.7948 17.005 26.4658 17.007 27.1659V27.8986C17.007 29.2815 15.9404 30.4303 14.5613 30.5329C13.1823 30.6354 11.9575 29.657 11.7529 28.2893L9.98738 26.5235L8.33992 28.1713C8.25997 28.2508 8.19682 28.3455 8.15422 28.4499L4.36556 37.6669C4.23085 37.9992 4.30527 38.3798 4.55531 38.637L11.8637 45.9458L21.2624 36.5472L19.9685 35.2536C18.2681 33.5489 18.2681 30.7895 19.9685 29.085Z" fill="black"/>
<path d="M10.6042 24.6724L10.6049 24.6729L10.6051 24.6733L13.2135 27.2819C13.3771 27.4455 13.469 27.6673 13.469 27.8987C13.469 28.3939 13.8705 28.7954 14.3657 28.7954C14.8609 28.7954 15.2624 28.3939 15.2624 27.8987V27.1661C15.2618 26.9285 15.1675 26.7007 15 26.5322L11.873 23.4054L11.8724 23.4051L11.8718 23.4042L5.61805 17.1507C5.36169 16.8945 4.97616 16.8179 4.64123 16.9565C4.3063 17.0953 4.0879 17.422 4.0879 17.7845C4.0871 18.0223 4.18158 18.2505 4.35028 18.418L10.6042 24.6724Z" fill="black"/>
</g>
<defs>
<clipPath id="clip0">
<rect width="50" height="50" fill="white"/>
</clipPath>
</defs>
</svg>
