<svg width="40" height="40" viewBox="0 0 40 40" fill="none" xmlns="http://www.w3.org/2000/svg">
<path d="M17.8976 0L31.4211 18.8407H4.37408L17.8976 0Z" fill="#3F9620"/>
<path d="M18.1384 4.73441L33.7425 26.4737H2.53432L18.1384 4.73441Z" fill="#3F9620"/>
<rect x="14.7747" y="25.9903" width="6.60661" height="10.4348" fill="#9E6439"/>
<path d="M18.018 11.0144L33.6221 32.7536H2.41396L18.018 11.0144Z" fill="#3F9620"/>
<rect x="33.1533" y="5.70038" width="2.4024" height="8.01937" fill="#C4C4C4"/>
<rect x="28.949" y="8.88885" width="2.4024" height="4.83095" fill="#C4C4C4"/>
<rect x="37.5977" y="2.12552" width="2.4024" height="11.401" fill="#C4C4C4"/>
<ellipse cx="30.1502" cy="8.79245" rx="1.2012" ry="0.966189" fill="#C4C4C4"/>
<ellipse cx="34.3545" cy="5.70059" rx="1.2012" ry="0.966189" fill="#C4C4C4"/>
<ellipse cx="38.7989" cy="2.12555" rx="1.2012" ry="0.966189" fill="#C4C4C4"/>
<ellipse cx="38.7989" cy="13.5266" rx="1.2012" ry="0.966189" fill="#C4C4C4"/>
<ellipse cx="34.3545" cy="13.5266" rx="1.2012" ry="0.966189" fill="#C4C4C4"/>
<ellipse cx="30.1502" cy="13.5266" rx="1.2012" ry="0.966189" fill="#C4C4C4"/>
<ellipse cx="18.078" cy="36.3771" rx="3.30331" ry="2.65702" fill="#9E6439"/>
</svg>
