<svg width="129" height="101" viewBox="0 0 129 101" fill="none" xmlns="http://www.w3.org/2000/svg">
<path d="M61.084 0L83.0598 28.261H39.1083L61.084 0Z" fill="#3F9620"/>
<path d="M61.4746 7.10156L86.8313 39.7105H36.118L61.4746 7.10156Z" fill="#3F9620"/>
<rect x="56.009" y="38.9854" width="10.7358" height="15.6523" fill="#9E6439"/>
<path d="M61.2793 16.5217L86.636 49.1306H35.9227L61.2793 16.5217Z" fill="#3F9620"/>
<rect x="85.874" y="8.55054" width="3.90391" height="12.0291" fill="#C4C4C4"/>
<rect x="79.042" y="13.3335" width="3.90391" height="7.24642" fill="#C4C4C4"/>
<rect x="93.0961" y="3.18799" width="3.90391" height="17.1015" fill="#C4C4C4"/>
<ellipse cx="80.9939" cy="13.1885" rx="1.95195" ry="1.44928" fill="#C4C4C4"/>
<ellipse cx="87.826" cy="8.55085" rx="1.95195" ry="1.44928" fill="#C4C4C4"/>
<ellipse cx="95.048" cy="3.1883" rx="1.95195" ry="1.44928" fill="#C4C4C4"/>
<ellipse cx="95.048" cy="20.2901" rx="1.95195" ry="1.44928" fill="#C4C4C4"/>
<ellipse cx="87.826" cy="20.2901" rx="1.95195" ry="1.44928" fill="#C4C4C4"/>
<ellipse cx="80.9939" cy="20.2901" rx="1.95195" ry="1.44928" fill="#C4C4C4"/>
<ellipse cx="61.3769" cy="54.5654" rx="5.36788" ry="3.98553" fill="#9E6439"/>
<path d="M15 67.06V70.45H6.27V75.82H12.96V79.15H6.27V88H2.07V67.06H15ZM25.3582 88.27C23.7582 88.27 22.3182 87.92 21.0382 87.22C19.7582 86.5 18.7482 85.49 18.0082 84.19C17.2882 82.89 16.9282 81.39 16.9282 79.69C16.9282 77.99 17.2982 76.49 18.0382 75.19C18.7982 73.89 19.8282 72.89 21.1282 72.19C22.4282 71.47 23.8782 71.11 25.4782 71.11C27.0782 71.11 28.5282 71.47 29.8282 72.19C31.1282 72.89 32.1482 73.89 32.8882 75.19C33.6482 76.49 34.0282 77.99 34.0282 79.69C34.0282 81.39 33.6382 82.89 32.8582 84.19C32.0982 85.49 31.0582 86.5 29.7382 87.22C28.4382 87.92 26.9782 88.27 25.3582 88.27ZM25.3582 84.61C26.1182 84.61 26.8282 84.43 27.4882 84.07C28.1682 83.69 28.7082 83.13 29.1082 82.39C29.5082 81.65 29.7082 80.75 29.7082 79.69C29.7082 78.11 29.2882 76.9 28.4482 76.06C27.6282 75.2 26.6182 74.77 25.4182 74.77C24.2182 74.77 23.2082 75.2 22.3882 76.06C21.5882 76.9 21.1882 78.11 21.1882 79.69C21.1882 81.27 21.5782 82.49 22.3582 83.35C23.1582 84.19 24.1582 84.61 25.3582 84.61ZM41.3091 73.96C41.8491 73.08 42.5491 72.39 43.4091 71.89C44.2891 71.39 45.2891 71.14 46.4091 71.14V75.55H45.2991C43.9791 75.55 42.9791 75.86 42.2991 76.48C41.6391 77.1 41.3091 78.18 41.3091 79.72V88H37.1091V71.38H41.3091V73.96ZM64.688 79.33C64.688 79.93 64.648 80.47 64.568 80.95H52.418C52.518 82.15 52.938 83.09 53.678 83.77C54.418 84.45 55.328 84.79 56.408 84.79C57.968 84.79 59.078 84.12 59.738 82.78H64.268C63.788 84.38 62.868 85.7 61.508 86.74C60.148 87.76 58.478 88.27 56.498 88.27C54.898 88.27 53.458 87.92 52.178 87.22C50.918 86.5 49.928 85.49 49.208 84.19C48.508 82.89 48.158 81.39 48.158 79.69C48.158 77.97 48.508 76.46 49.208 75.16C49.908 73.86 50.888 72.86 52.148 72.16C53.408 71.46 54.858 71.11 56.498 71.11C58.078 71.11 59.488 71.45 60.728 72.13C61.988 72.81 62.958 73.78 63.638 75.04C64.338 76.28 64.688 77.71 64.688 79.33ZM60.338 78.13C60.318 77.05 59.928 76.19 59.168 75.55C58.408 74.89 57.478 74.56 56.378 74.56C55.338 74.56 54.458 74.88 53.738 75.52C53.038 76.14 52.608 77.01 52.448 78.13H60.338ZM74.1136 88.27C72.7536 88.27 71.5336 88.03 70.4536 87.55C69.3736 87.05 68.5136 86.38 67.8736 85.54C67.2536 84.7 66.9136 83.77 66.8536 82.75H71.0836C71.1636 83.39 71.4736 83.92 72.0136 84.34C72.5736 84.76 73.2636 84.97 74.0836 84.97C74.8836 84.97 75.5036 84.81 75.9436 84.49C76.4036 84.17 76.6336 83.76 76.6336 83.26C76.6336 82.72 76.3536 82.32 75.7936 82.06C75.2536 81.78 74.3836 81.48 73.1836 81.16C71.9436 80.86 70.9236 80.55 70.1236 80.23C69.3436 79.91 68.6636 79.42 68.0836 78.76C67.5236 78.1 67.2436 77.21 67.2436 76.09C67.2436 75.17 67.5036 74.33 68.0236 73.57C68.5636 72.81 69.3236 72.21 70.3036 71.77C71.3036 71.33 72.4736 71.11 73.8136 71.11C75.7936 71.11 77.3736 71.61 78.5536 72.61C79.7336 73.59 80.3836 74.92 80.5036 76.6H76.4836C76.4236 75.94 76.1436 75.42 75.6436 75.04C75.1636 74.64 74.5136 74.44 73.6936 74.44C72.9336 74.44 72.3436 74.58 71.9236 74.86C71.5236 75.14 71.3236 75.53 71.3236 76.03C71.3236 76.59 71.6036 77.02 72.1636 77.32C72.7236 77.6 73.5936 77.89 74.7736 78.19C75.9736 78.49 76.9636 78.8 77.7436 79.12C78.5236 79.44 79.1936 79.94 79.7536 80.62C80.3336 81.28 80.6336 82.16 80.6536 83.26C80.6536 84.22 80.3836 85.08 79.8436 85.84C79.3236 86.6 78.5636 87.2 77.5636 87.64C76.5836 88.06 75.4336 88.27 74.1136 88.27ZM88.9913 74.83V82.87C88.9913 83.43 89.1213 83.84 89.3813 84.1C89.6613 84.34 90.1213 84.46 90.7613 84.46H92.7113V88H90.0713C86.5313 88 84.7613 86.28 84.7613 82.84V74.83H82.7813V71.38H84.7613V67.27H88.9913V71.38H92.7113V74.83H88.9913ZM116.005 83.02H106.465L104.635 88H102.415L110.065 67.3H112.435L120.055 88H117.835L116.005 83.02ZM115.375 81.28L111.235 69.94L107.095 81.28H115.375ZM125.525 67.03V88H123.425V67.03H125.525Z" fill="black"/>
</svg>
