<svg width="129" height="101" viewBox="0 0 129 101" fill="none" xmlns="http://www.w3.org/2000/svg">
<path d="M61.084 0L83.0598 28.261H39.1083L61.084 0Z" fill="#3F9620"/>
<path d="M61.4746 7.10156L86.8312 39.7105H36.1179L61.4746 7.10156Z" fill="#3F9620"/>
<rect x="56.009" y="38.9854" width="10.7358" height="15.6523" fill="#9E6439"/>
<path d="M61.2793 16.5217L86.636 49.1306H35.9227L61.2793 16.5217Z" fill="#3F9620"/>
<rect x="85.8741" y="8.55054" width="3.90391" height="12.0291" fill="#C4C4C4"/>
<rect x="79.042" y="13.3335" width="3.90391" height="7.24642" fill="#C4C4C4"/>
<rect x="93.0961" y="3.18799" width="3.90391" height="17.1015" fill="#C4C4C4"/>
<ellipse cx="80.9939" cy="13.1885" rx="1.95195" ry="1.44928" fill="#C4C4C4"/>
<ellipse cx="87.826" cy="8.55085" rx="1.95195" ry="1.44928" fill="#C4C4C4"/>
<ellipse cx="95.048" cy="3.1883" rx="1.95195" ry="1.44928" fill="#C4C4C4"/>
<ellipse cx="95.048" cy="20.2901" rx="1.95195" ry="1.44928" fill="#C4C4C4"/>
<ellipse cx="87.826" cy="20.2901" rx="1.95195" ry="1.44928" fill="#C4C4C4"/>
<ellipse cx="80.9939" cy="20.2901" rx="1.95195" ry="1.44928" fill="#C4C4C4"/>
<ellipse cx="61.3769" cy="54.5654" rx="5.36788" ry="3.98553" fill="#9E6439"/>
<path d="M14.52 67.15V69.94H5.67V76.09H12.57V78.88H5.67V88H2.25V67.15H14.52ZM24.8595 88.27C23.2995 88.27 21.8895 87.92 20.6295 87.22C19.3695 86.5 18.3795 85.5 17.6595 84.22C16.9395 82.92 16.5795 81.42 16.5795 79.72C16.5795 78.04 16.9495 76.55 17.6895 75.25C18.4295 73.95 19.4395 72.95 20.7195 72.25C21.9995 71.55 23.4295 71.2 25.0095 71.2C26.5895 71.2 28.0195 71.55 29.2995 72.25C30.5795 72.95 31.5895 73.95 32.3295 75.25C33.0695 76.55 33.4395 78.04 33.4395 79.72C33.4395 81.4 33.0595 82.89 32.2995 84.19C31.5395 85.49 30.4995 86.5 29.1795 87.22C27.8795 87.92 26.4395 88.27 24.8595 88.27ZM24.8595 85.3C25.7395 85.3 26.5595 85.09 27.3195 84.67C28.0995 84.25 28.7295 83.62 29.2095 82.78C29.6895 81.94 29.9295 80.92 29.9295 79.72C29.9295 78.52 29.6995 77.51 29.2395 76.69C28.7795 75.85 28.1695 75.22 27.4095 74.8C26.6495 74.38 25.8295 74.17 24.9495 74.17C24.0695 74.17 23.2495 74.38 22.4895 74.8C21.7495 75.22 21.1595 75.85 20.7195 76.69C20.2795 77.51 20.0595 78.52 20.0595 79.72C20.0595 81.5 20.5095 82.88 21.4095 83.86C22.3295 84.82 23.4795 85.3 24.8595 85.3ZM40.2403 73.87C40.7403 73.03 41.4003 72.38 42.2203 71.92C43.0603 71.44 44.0503 71.2 45.1903 71.2V74.74H44.3203C42.9803 74.74 41.9603 75.08 41.2603 75.76C40.5803 76.44 40.2403 77.62 40.2403 79.3V88H36.8203V71.47H40.2403V73.87ZM63.484 79.33C63.484 79.95 63.444 80.51 63.364 81.01H50.734C50.834 82.33 51.324 83.39 52.204 84.19C53.084 84.99 54.164 85.39 55.444 85.39C57.284 85.39 58.584 84.62 59.344 83.08H63.034C62.534 84.6 61.624 85.85 60.304 86.83C59.004 87.79 57.384 88.27 55.444 88.27C53.864 88.27 52.444 87.92 51.184 87.22C49.944 86.5 48.964 85.5 48.244 84.22C47.544 82.92 47.194 81.42 47.194 79.72C47.194 78.02 47.534 76.53 48.214 75.25C48.914 73.95 49.884 72.95 51.124 72.25C52.384 71.55 53.824 71.2 55.444 71.2C57.004 71.2 58.394 71.54 59.614 72.22C60.834 72.9 61.784 73.86 62.464 75.1C63.144 76.32 63.484 77.73 63.484 79.33ZM59.914 78.25C59.894 76.99 59.444 75.98 58.564 75.22C57.684 74.46 56.594 74.08 55.294 74.08C54.114 74.08 53.104 74.46 52.264 75.22C51.424 75.96 50.924 76.97 50.764 78.25H59.914ZM72.8496 88.27C71.5496 88.27 70.3796 88.04 69.3396 87.58C68.3196 87.1 67.5096 86.46 66.9096 85.66C66.3096 84.84 65.9896 83.93 65.9496 82.93H69.4896C69.5496 83.63 69.8796 84.22 70.4796 84.7C71.0996 85.16 71.8696 85.39 72.7896 85.39C73.7496 85.39 74.4896 85.21 75.0096 84.85C75.5496 84.47 75.8196 83.99 75.8196 83.41C75.8196 82.79 75.5196 82.33 74.9196 82.03C74.3396 81.73 73.4096 81.4 72.1296 81.04C70.8896 80.7 69.8796 80.37 69.0996 80.05C68.3196 79.73 67.6396 79.24 67.0596 78.58C66.4996 77.92 66.2196 77.05 66.2196 75.97C66.2196 75.09 66.4796 74.29 66.9996 73.57C67.5196 72.83 68.2596 72.25 69.2196 71.83C70.1996 71.41 71.3196 71.2 72.5796 71.2C74.4596 71.2 75.9696 71.68 77.1096 72.64C78.2696 73.58 78.8896 74.87 78.9696 76.51H75.5496C75.4896 75.77 75.1896 75.18 74.6496 74.74C74.1096 74.3 73.3796 74.08 72.4596 74.08C71.5596 74.08 70.8696 74.25 70.3896 74.59C69.9096 74.93 69.6696 75.38 69.6696 75.94C69.6696 76.38 69.8296 76.75 70.1496 77.05C70.4696 77.35 70.8596 77.59 71.3196 77.77C71.7796 77.93 72.4596 78.14 73.3596 78.4C74.5596 78.72 75.5396 79.05 76.2996 79.39C77.0796 79.71 77.7496 80.19 78.3096 80.83C78.8696 81.47 79.1596 82.32 79.1796 83.38C79.1796 84.32 78.9196 85.16 78.3996 85.9C77.8796 86.64 77.1396 87.22 76.1796 87.64C75.2396 88.06 74.1296 88.27 72.8496 88.27ZM86.865 74.26V83.41C86.865 84.03 87.005 84.48 87.285 84.76C87.585 85.02 88.085 85.15 88.785 85.15H90.885V88H88.185C86.645 88 85.465 87.64 84.645 86.92C83.825 86.2 83.415 85.03 83.415 83.41V74.26H81.465V71.47H83.415V67.36H86.865V71.47H90.885V74.26H86.865ZM114.4 83.74H105.67L104.17 88H100.6L108.07 67.12H112.03L119.5 88H115.9L114.4 83.74ZM113.44 80.95L110.05 71.26L106.63 80.95H113.44ZM126.168 67.15V88H122.748V67.15H126.168Z" fill="black"/>
</svg>
