<svg width="20" height="20" viewBox="0 0 20 20" fill="none" xmlns="http://www.w3.org/2000/svg">
<path d="M10.0152 4.06158C8.15393 4.06158 6.63965 5.57587 6.63965 7.43699C6.63965 9.29826 8.15393 10.8125 10.0152 10.8125C11.8765 10.8125 13.3906 9.29826 13.3906 7.43699C13.3906 5.57587 11.8763 4.06158 10.0152 4.06158Z" fill="#727272"/>
<path d="M10.0456 0.000152588L10.0143 0C5.91399 0 2.57812 3.33617 2.57812 7.43697C2.57812 9.68519 3.72726 11.4387 5.00762 13.1849L10.0044 20C10.0044 20 14.7273 13.5879 15.0227 13.1851C16.3031 11.4389 17.4522 9.68534 17.4522 7.43712C17.4522 3.3464 14.1327 0.0163269 10.0456 0.000152588ZM10.0152 11.9841C7.50792 11.9841 5.46813 9.94429 5.46813 7.43697C5.46813 4.9298 7.50792 2.89001 10.0152 2.89001C12.5226 2.89001 14.5624 4.9298 14.5624 7.43697C14.5624 9.94429 12.5224 11.9841 10.0152 11.9841Z" fill="#727272"/>
</svg>
