<svg width="20" height="20" viewBox="0 0 20 20" fill="none" xmlns="http://www.w3.org/2000/svg">
<path d="M10 0C9.87978 1.78565e-05 9.76075 0.0276469 9.64981 0.0812877C9.53887 0.134928 9.43822 0.213516 9.35369 0.3125L0.184659 9.57648C0.127394 9.62541 0.0808519 9.68922 0.0487785 9.76278C0.0167051 9.83634 -2.73427e-06 9.9176 3.35629e-10 10C3.35629e-10 10.1396 0.0478894 10.2735 0.133133 10.3722C0.218377 10.4709 0.333992 10.5263 0.454545 10.5263H2.72727V18.9474C2.72727 19.5284 3.13455 20 3.63636 20H7.27273C7.77455 20 8.18182 19.5284 8.18182 18.9474V12.6316H11.8182V18.9474C11.8182 19.5284 12.2255 20 12.7273 20H16.3636C16.8655 20 17.2727 19.5284 17.2727 18.9474V10.5263H19.5455C19.666 10.5263 19.7816 10.4709 19.8669 10.3722C19.9521 10.2735 20 10.1396 20 10C20 9.9176 19.9833 9.83634 19.9512 9.76278C19.9191 9.68922 19.8726 9.62541 19.8153 9.57648L10.6516 0.318668C10.6499 0.316603 10.6481 0.314547 10.6463 0.3125C10.5618 0.213516 10.4611 0.134928 10.3502 0.0812877C10.2392 0.0276469 10.1202 1.78565e-05 10 0Z" fill="#727272"/>
</svg>
